<?xml version="1.0" encoding="UTF-8"?>
<svg version="1.1" xmlns="http://www.w3.org/2000/svg" width="128" height="128" viewBox="0 10 128 128" >
<path d="M0 0 C1.14082031 0.04253906 1.14082031 0.04253906 2.3046875 0.0859375 C7.54350228 0.45635875 10.88607904 1.48811625 15 5 C15.7025364 6.31478699 16.36444472 7.65155953 17 9 C17.98586576 10.69579626 18.98669884 12.38295333 20 14.0625 C20.515625 14.91972656 21.03125 15.77695312 21.5625 16.66015625 C22.67060302 18.4638348 23.82577048 20.23865572 25 22 C25.33 22 25.66 22 26 22 C26.2268919 25.39485887 26.42821794 28.79077335 26.625 32.1875 C26.68945312 33.14720703 26.75390625 34.10691406 26.8203125 35.09570312 C26.871875 36.02705078 26.9234375 36.95839844 26.9765625 37.91796875 C27.02893066 38.77156982 27.08129883 39.6251709 27.13525391 40.50463867 C26.88192313 45.1784543 24.86088716 48.42389105 22 52 C21.34 52.99 20.68 53.98 20 55 C19.525625 55.69996094 19.05125 56.39992187 18.5625 57.12109375 C18.046875 57.88550781 17.53125 58.64992187 17 59.4375 C16.484375 60.19933594 15.96875 60.96117187 15.4375 61.74609375 C14.13802764 63.78358167 13.03372333 65.81824739 12 68 C12.763125 68.226875 13.52625 68.45375 14.3125 68.6875 C17.59947145 70.29276513 18.2402606 71.86307325 20 75 C22.06954847 76.78344178 22.06954847 76.78344178 24 78 C23.505 76.948125 23.505 76.948125 23 75.875 C21.85501081 72.58315607 21.57582675 70.46408158 22 67 C23.875 63.875 23.875 63.875 26 61 C26.556875 59.8553125 26.556875 59.8553125 27.125 58.6875 C28 57 28 57 30 56 C31.99960012 55.960008 34.00047242 55.95653201 36 56 C37.81975482 61.12839994 35.8599099 65.17684382 34 70 C34.66 69.67 35.32 69.34 36 69 C36.61272305 66.91193 36.61272305 66.91193 37 64.5 C37.4375 62.03125 37.4375 62.03125 38 60 C38.66 59.67 39.32 59.34 40 59 C43.27187479 61.41085511 45.52478288 63.18261351 47 67 C47.2092813 72.48117682 45.94302803 77.35907118 43 82 C40 84 40 84 37 84 C35.95755231 86.08489539 35.33940736 87.69202999 35 90 C35.32613281 90.5671875 35.65226562 91.134375 35.98828125 91.71875 C37.37021317 94.83476639 37.11169457 97.24255827 36.875 100.625 C36.81054688 101.77226563 36.74609375 102.91953125 36.6796875 104.1015625 C36 107 36 107 34.0078125 108.2734375 C33.34523438 108.51320313 32.68265625 108.75296875 32 109 C31.67 109.66 31.34 110.32 31 111 C30.35933594 110.84402344 29.71867187 110.68804687 29.05859375 110.52734375 C28.19363281 110.33269531 27.32867187 110.13804688 26.4375 109.9375 C25.59058594 109.74027344 24.74367188 109.54304688 23.87109375 109.33984375 C20.94370592 108.86684475 20.94370592 108.86684475 17.8137207 109.46826172 C13.88901524 110.01547435 10.06184027 110.16111508 6.109375 110.16796875 C5.37067673 110.17206757 4.63197845 110.17616638 3.87089539 110.1803894 C1.49721543 110.18988718 -0.87630392 110.18992718 -3.25 110.1875 C-4.45787674 110.18808914 -4.45787674 110.18808914 -5.69015503 110.18869019 C-34.48457768 110.17180744 -34.48457768 110.17180744 -44 107 C-44 106.01 -44 105.02 -44 104 C-42.02 103.505 -42.02 103.505 -40 103 C-40 100.69 -40 98.38 -40 96 C-39.34 96 -38.68 96 -38 96 C-37.79375 94.72125 -37.5875 93.4425 -37.375 92.125 C-35.34321431 82.92391337 -29.03472789 74.15538691 -22 68 C-19.75 67.25 -19.75 67.25 -18 67 C-18.928125 66.5978125 -18.928125 66.5978125 -19.875 66.1875 C-22 65 -22 65 -24 62 C-24.66 61.67 -25.32 61.34 -26 61 C-26.35268934 59.3373217 -26.68033861 57.66934283 -27 56 C-27.40306391 54.57315376 -27.84287688 53.15634449 -28.3125 51.75 C-28.53550781 51.06421875 -28.75851563 50.3784375 -28.98828125 49.671875 C-29.88488606 47.78930331 -29.88488606 47.78930331 -32.10546875 47.265625 C-32.73066406 47.17796875 -33.35585938 47.0903125 -34 47 C-34.22174933 45.54364629 -34.42698698 44.08477044 -34.625 42.625 C-34.74101563 41.81289063 -34.85703125 41.00078125 -34.9765625 40.1640625 C-34.98429687 39.44992188 -34.99203125 38.73578125 -35 38 C-34.34 37.34 -33.68 36.68 -33 36 C-32.77229388 33.77770359 -32.64079379 31.5450594 -32.5625 29.3125 C-32.14613715 21.58229167 -32.14613715 21.58229167 -30.375 18.3125 C-28.58590562 14.002409 -29.14103855 10.80860491 -29.7734375 6.2578125 C-29.84820312 5.51273438 -29.92296875 4.76765625 -30 4 C-27.96669819 1.96669819 -24.05300946 2.31583205 -21.25 2 C-2.88636743 -0.11379943 -2.88636743 -0.11379943 0 0 Z M34 102 C35 104 35 104 35 104 Z " fill="#48423D" transform="translate(68,16)"/>
<path d="M0 0 C1.13695312 0.16242187 2.27390625 0.32484375 3.4453125 0.4921875 C7.9358684 1.05128443 12.3542371 1.15214591 16.875 1.125 C18.0503833 1.12209961 18.0503833 1.12209961 19.24951172 1.11914062 C24.88829377 1.07713852 30.40311192 0.72217911 36 0 C36.05607422 1.01320312 36.05607422 1.01320312 36.11328125 2.046875 C36.21189453 3.38492188 36.21189453 3.38492188 36.3125 4.75 C36.37050781 5.63171875 36.42851563 6.5134375 36.48828125 7.421875 C37.07400272 10.37283811 37.9577358 11.81502337 40 14 C40.86625 14.33 41.7325 14.66 42.625 15 C43.40875 15.33 44.1925 15.66 45 16 C45.8125 18.125 45.8125 18.125 46 20 C45.236875 20.28875 44.47375 20.5775 43.6875 20.875 C40.63515463 23.28848239 40.51220314 24.05498903 39.625 27.6875 C37.78607666 34.75392451 33.94835583 39.15005124 27.8125 43 C21.12746394 44.75345208 14.07716732 45.31063401 7.625 42.4375 C1.60335447 38.84454311 -1.78560452 34.52194611 -3.5625 27.75 C-3.88347656 26.47769531 -3.88347656 26.47769531 -4.2109375 25.1796875 C-4.89130827 22.70270873 -4.89130827 22.70270873 -7.6875 20.875 C-8.8321875 20.441875 -8.8321875 20.441875 -10 20 C-9.875 18.1875 -9.875 18.1875 -9 16 C-7.02583732 14.94991347 -5.02417134 13.95012124 -3 13 C-0.89172945 9.83759418 -0.66182535 8.49342531 -0.375 4.8125 C-0.30023438 3.91144531 -0.22546875 3.01039062 -0.1484375 2.08203125 C-0.09945312 1.39496094 -0.05046875 0.70789062 0 0 Z " fill="#FACBBC" transform="translate(46,38)"/>
<path d="M0 0 C0.66 0 1.32 0 2 0 C1.34 5.61 0.68 11.22 0 17 C4.04605973 14.58537435 4.04605973 14.58537435 4.609375 11.95703125 C4.65578125 11.24933594 4.7021875 10.54164062 4.75 9.8125 C4.8325 8.554375 4.915 7.29625 5 6 C5.33 6 5.66 6 6 6 C6.08114106 7.77007714 6.13925505 9.54122098 6.1875 11.3125 C6.22230469 12.29863281 6.25710937 13.28476562 6.29296875 14.30078125 C6 17 6 17 4.65625 18.78125 C2.57056458 20.31599965 0.43397831 21.14481843 -2 22 C-1.80528889 23.94999129 -1.80528889 23.94999129 -1 26 C-0.35417969 26.27585937 0.29164062 26.55171875 0.95703125 26.8359375 C3 28 3 28 3.87109375 30.171875 C4.15146484 31.44804688 4.15146484 31.44804688 4.4375 32.75 C6.15590031 39.09345645 8.72868566 42.86188349 14.4375 46.375 C20.2440892 49.08250402 26.75231529 48.31589417 33 48 C33 48.66 33 49.32 33 50 C34.32 50.66 35.64 51.32 37 52 C37 54.97 37 57.94 37 61 C37.66 61 38.32 61 39 61 C39.33 60.01 39.66 59.02 40 58 C40.02685412 60.31243792 40.04632841 62.6249627 40.0625 64.9375 C40.07410156 66.22527344 40.08570313 67.51304688 40.09765625 68.83984375 C40 72 40 72 39 73 C36.81360547 73.07258946 34.62499611 73.08373783 32.4375 73.0625 C30.64119141 73.04896484 30.64119141 73.04896484 28.80859375 73.03515625 C27.41833984 73.01775391 27.41833984 73.01775391 26 73 C26 71.02 26 69.04 26 67 C25.34 67 24.68 67 24 67 C24 68.98 24 70.96 24 73 C29.28 73.33 34.56 73.66 40 74 C40 74.33 40 74.66 40 75 C35.60343827 75.02465504 31.2069128 75.04283842 26.81030273 75.05493164 C25.31355082 75.05997121 23.81680384 75.06680287 22.32006836 75.07543945 C20.17300193 75.08752159 18.02600038 75.09323191 15.87890625 75.09765625 C13.93866577 75.10551147 13.93866577 75.10551147 11.95922852 75.11352539 C9 75 9 75 8 74 C7.76321284 71.30764224 7.57801975 68.63501844 7.4375 65.9375 C7.39431641 65.17888672 7.35113281 64.42027344 7.30664062 63.63867188 C7.20026367 61.75934562 7.09960066 59.87969756 7 58 C5.02 58.495 5.02 58.495 3 59 C3 67.91 3 76.82 3 86 C0.36 86 -2.28 86 -5 86 C-5.51776299 74.3215681 -5.51776299 74.3215681 -3.5 70.125 C-1.75538191 67.11670985 -1.75538191 67.11670985 -2.125 63.9375 C-1.94369207 59.67676366 0.11300205 58.01822513 3 55 C3.680625 54.236875 4.36125 53.47375 5.0625 52.6875 C7.09078717 50.9209273 8.36695077 50.37614989 11 50 C10.38125 49.731875 9.7625 49.46375 9.125 49.1875 C7 48 7 48 5 45 C4.34 44.67 3.68 44.34 3 44 C2.64731066 42.3373217 2.31966139 40.66934283 2 39 C1.59693609 37.57315376 1.15712312 36.15634449 0.6875 34.75 C0.46449219 34.06421875 0.24148437 33.3784375 0.01171875 32.671875 C-0.88488606 30.78930331 -0.88488606 30.78930331 -3.10546875 30.265625 C-3.73066406 30.17796875 -4.35585938 30.0903125 -5 30 C-5.22174933 28.54364629 -5.42698698 27.08477044 -5.625 25.625 C-5.74101563 24.81289063 -5.85703125 24.00078125 -5.9765625 23.1640625 C-5.98429687 22.44992188 -5.99203125 21.73578125 -6 21 C-5.34 20.34 -4.68 19.68 -4 19 C-3.64875984 15.49204444 -3.55649021 12.00352274 -3.44140625 8.48046875 C-2.98121646 4.85189259 -2.22800279 2.87395937 0 0 Z " fill="#44433F" transform="translate(39,33)"/>
<path d="M0 0 C1.81975482 5.12839994 -0.1400901 9.17684382 -2 14 C-1.34 13.67 -0.68 13.34 0 13 C0.61272305 10.91193 0.61272305 10.91193 1 8.5 C1.4375 6.03125 1.4375 6.03125 2 4 C2.66 3.67 3.32 3.34 4 3 C7.27187479 5.41085511 9.52478288 7.18261351 11 11 C11.2092813 16.48117682 9.94302803 21.35907118 7 26 C4 28 4 28 1 28 C-0.81588958 31.63177916 -1.25556424 34.09380015 0 38 C-0.66 38 -1.32 38 -2 38 C-2.103125 38.515625 -2.20625 39.03125 -2.3125 39.5625 C-4.57142857 47.57142857 -4.57142857 47.57142857 -7 50 C-8.92578125 49.94921875 -8.92578125 49.94921875 -11.3125 49.6875 C-12.09238281 49.60886719 -12.87226562 49.53023437 -13.67578125 49.44921875 C-16.08207271 48.98413721 -17.87133832 48.19341444 -20 47 C-20 46.01 -20 45.02 -20 44 C-17.69 44.33 -15.38 44.66 -13 45 C-13 44.34 -13 43.68 -13 43 C-14.98 42.34 -16.96 41.68 -19 41 C-19 40.01 -19 39.02 -19 38 C-16.36 38.33 -13.72 38.66 -11 39 C-11 38.34 -11 37.68 -11 37 C-11.78375 36.896875 -12.5675 36.79375 -13.375 36.6875 C-16 36 -16 36 -18 33 C-18.1953125 30.51953125 -18.1953125 30.51953125 -18.125 27.8125 C-18.10695313 26.91144531 -18.08890625 26.01039062 -18.0703125 25.08203125 C-18.04710938 24.39496094 -18.02390625 23.70789063 -18 23 C-17.34 23 -16.68 23 -16 23 C-14.7109375 24.53125 -14.7109375 24.53125 -13.375 26.5 C-12.92898437 27.1496875 -12.48296875 27.799375 -12.0234375 28.46875 C-11.68570313 28.9740625 -11.34796875 29.479375 -11 30 C-8.15386732 27.15386732 -8.20135576 24.95999656 -8 21 C-9.39092892 18.37612865 -9.39092892 18.37612865 -11 16 C-11.1875 13.1875 -11.1875 13.1875 -11 11 C-11.66 11 -12.32 11 -13 11 C-10.11739712 3.23914609 -8.58978952 -0.18673455 0 0 Z " fill="#4B4743" transform="translate(104,72)"/>
<path d="M0 0 C5.38565692 4.85868462 9.72640251 10.41102398 10.171875 17.8828125 C10.18575692 20.59672797 10.13233223 23.2896399 10 26 C8.0390625 25.3125 8.0390625 25.3125 6 24 C5.4609375 21.6875 5.4609375 21.6875 5.375 19 C5.37833616 15.02249049 5.37833616 15.02249049 3 12 C1.10807023 12.1984837 -0.78362578 12.4105761 -2.6640625 12.69824219 C-6.76584103 13.22811241 -10.87028323 13.14377144 -15 13.125 C-15.85078125 13.12886719 -16.7015625 13.13273437 -17.578125 13.13671875 C-21.62356681 13.13051408 -25.4979884 12.97940859 -29.5 12.3671875 C-31.2325 12.18542969 -31.2325 12.18542969 -33 12 C-35.91314967 14.91314967 -35.33346918 17.70121807 -35.4609375 21.6875 C-36 24 -36 24 -38.0390625 25.3125 C-39.00972656 25.6528125 -39.00972656 25.6528125 -40 26 C-40.48297794 18.94315561 -39.98437281 13.74678649 -36.77734375 7.38671875 C-35.77279663 4.30240573 -36.28394427 2.12092213 -37 -1 C-25.15640732 -4.023896 -10.78985456 -7.65800811 0 0 Z " fill="#A66B4D" transform="translate(79,24)"/>
<path d="M0 0 C0.33 0 0.66 0 1 0 C1 8.91 1 17.82 1 27 C13.54 27 26.08 27 39 27 C39 26.34 39 25.68 39 25 C39.66 25 40.32 25 41 25 C41 25.66 41 26.32 41 27 C45.63451033 28.04650233 50.28051507 28.50691948 55 29 C56.65 25.37 58.3 21.74 60 18 C60.99 18 61.98 18 63 18 C62.94011859 20.12579013 62.85137256 22.25078413 62.75 24.375 C62.70359375 25.55835937 62.6571875 26.74171875 62.609375 27.9609375 C62.40828125 28.96382812 62.2071875 29.96671875 62 31 C60.015625 32.2890625 60.015625 32.2890625 58 33 C57.505 33.99 57.505 33.99 57 35 C56.35933594 34.84402344 55.71867187 34.68804687 55.05859375 34.52734375 C54.19363281 34.33269531 53.32867187 34.13804688 52.4375 33.9375 C51.59058594 33.74027344 50.74367188 33.54304688 49.87109375 33.33984375 C46.94370592 32.86684475 46.94370592 32.86684475 43.8137207 33.46826172 C39.88901524 34.01547435 36.06184027 34.16111508 32.109375 34.16796875 C31.37067673 34.17206757 30.63197845 34.17616638 29.87089539 34.1803894 C27.49721543 34.18988718 25.12369608 34.18992718 22.75 34.1875 C21.54212326 34.18808914 21.54212326 34.18808914 20.30984497 34.18869019 C-8.48457768 34.17180744 -8.48457768 34.17180744 -18 31 C-18 30.01 -18 29.02 -18 28 C-16.68 27.67 -15.36 27.34 -14 27 C-14 24.69 -14 22.38 -14 20 C-13.34 20 -12.68 20 -12 20 C-11.90203125 19.41992188 -11.8040625 18.83984375 -11.703125 18.2421875 C-10.68275054 12.9116106 -9.40164926 9.25206157 -6 5 C-5.34 4.67 -4.68 4.34 -4 4 C-4.41115218 6.94659063 -4.81484039 9.57181839 -6 12.3125 C-7.14142657 15.3800839 -7.41004413 18.05233598 -7.625 21.3125 C-7.69976562 22.38113281 -7.77453125 23.44976562 -7.8515625 24.55078125 C-7.90054688 25.35902344 -7.94953125 26.16726562 -8 27 C-5.36 27 -2.72 27 0 27 C0 18.09 0 9.18 0 0 Z M60 26 C61 28 61 28 61 28 Z " fill="#43423D" transform="translate(42,92)"/>
<path d="M0 0 C0.33 5.61 0.66 11.22 1 17 C11.56 17 22.12 17 33 17 C33.33 11.39 33.66 5.78 34 0 C34.99 0.66 35.98 1.32 37 2 C37.27943569 4.65313675 37.37219152 7.03958437 37.3125 9.6875 C37.31572266 10.38294922 37.31894531 11.07839844 37.32226562 11.79492188 C37.27392934 16.50111835 36.45600227 20.4902102 35 25 C34.67 26.32 34.34 27.64 34 29 C21.46 29 8.92 29 -4 29 C-4.061875 24.58625 -4.12375 20.1725 -4.1875 15.625 C-4.22846802 13.53792725 -4.22846802 13.53792725 -4.27026367 11.40869141 C-4.27775635 10.31733887 -4.28524902 9.22598633 -4.29296875 8.1015625 C-4.3086792 6.98088379 -4.32438965 5.86020508 -4.34057617 4.70556641 C-4.22818604 3.81272949 -4.1157959 2.91989258 -4 2 C-1 0 -1 0 0 0 Z " fill="#ED8317" transform="translate(47,90)"/>
<path d="M0 0 C4.30806752 4.04295568 8.84519036 8.59418782 9.125 14.75 C9.08375 15.4925 9.0425 16.235 9 17 C8.484375 16.29875 7.96875 15.5975 7.4375 14.875 C2.23767451 8.7418725 -3.4685069 3.48133158 -11.828125 2.75390625 C-17.96096728 2.62292846 -23.11554213 3.40421481 -29 5 C-31.36570139 5.15379321 -33.62652603 5.09889475 -36 5 C-36.33 3.02 -36.66 1.04 -37 -1 C-25.18372593 -4.01692104 -10.75461708 -7.68186934 0 0 Z " fill="#DA9068" transform="translate(79,24)"/>
<path d="M0 0 C0 2.97 0 5.94 0 9 C1.65 9.33 3.3 9.66 5 10 C5.45375 9.21625 5.9075 8.4325 6.375 7.625 C8 5 8 5 10 3 C11.56918492 4.56918492 11.28258943 6.14085159 11.375 8.3125 C11.33500947 11.91164782 11.30988231 12.65470257 8.8125 15.4375 C6 17 6 17 3.375 17.8125 C-0.27096542 19.63548271 -0.67353309 22.23004142 -2 26 C-2.99 26 -3.98 26 -5 26 C-4.89300781 25.26394531 -4.78601563 24.52789062 -4.67578125 23.76953125 C-3.96515463 17.98518338 -3.61886436 14.93082281 -7 10 C-6.92341191 6.24718369 -6.44317042 4.54324116 -4.0625 1.625 C-2 0 -2 0 0 0 Z " fill="#D5E7EF" transform="translate(100,78)"/>
<path d="M0 0 C5.20540698 0.96396425 9.59913433 1.87680501 14 5 C13.55966813 10.19591612 13.11696661 13.66335081 10 18 C8.58249437 17.88490339 7.16598831 17.75746342 5.75 17.625 C4.96109375 17.55539063 4.1721875 17.48578125 3.359375 17.4140625 C0.914123 16.98492887 -0.84836903 16.21399362 -3 15 C-3 14.01 -3 13.02 -3 12 C-0.69 12.33 1.62 12.66 4 13 C4 12.34 4 11.68 4 11 C2.02 10.34 0.04 9.68 -2 9 C-2 8.01 -2 7.02 -2 6 C0.64 6.33 3.28 6.66 6 7 C6 6.34 6 5.68 6 5 C4.35 4.67 2.7 4.34 1 4 C0.67 2.68 0.34 1.36 0 0 Z " fill="#F7CABB" transform="translate(87,104)"/>
<path d="M0 0 C0.74886475 0.00523682 1.49772949 0.01047363 2.26928711 0.01586914 C3.07817383 0.0190918 3.88706055 0.02231445 4.72045898 0.02563477 C5.5705957 0.03401367 6.42073242 0.04239258 7.29663086 0.05102539 C8.15063477 0.05553711 9.00463867 0.06004883 9.88452148 0.06469727 C12.00108749 0.07652166 14.11761771 0.0944577 16.23413086 0.11352539 C16.87866211 2.44165039 16.87866211 2.44165039 17.23413086 5.11352539 C14.00685315 8.95136915 11.91643604 10.92307575 6.92163086 11.48852539 C3.23413086 11.11352539 3.23413086 11.11352539 0.35913086 8.92602539 C-1.7507615 6.1335208 -2.57361345 4.57412782 -2.76586914 1.11352539 C-1.76586914 0.11352539 -1.76586914 0.11352539 0 0 Z " fill="#524943" transform="translate(56.765869140625,66.886474609375)"/>
<path d="M0 0 C4.08360773 0.59798161 8.18149111 0.48063811 12.30078125 0.46191406 C13.57695313 0.46771484 13.57695313 0.46771484 14.87890625 0.47363281 C20.10871155 0.46561164 25.12531402 0.0916697 30.30078125 -0.66308594 C32.20863965 2.51182346 32.46168535 4.44276618 31.92578125 8.08691406 C31.81492188 8.88613281 31.7040625 9.68535156 31.58984375 10.50878906 C31.44675781 11.41371094 31.44675781 11.41371094 31.30078125 12.33691406 C30.97078125 12.33691406 30.64078125 12.33691406 30.30078125 12.33691406 C30.30078125 9.03691406 30.30078125 5.73691406 30.30078125 2.33691406 C29.02203125 2.66691406 27.74328125 2.99691406 26.42578125 3.33691406 C21.32136761 4.35779679 16.3619328 4.56131924 11.17578125 4.58691406 C10.42441895 4.5959375 9.67305664 4.60496094 8.89892578 4.61425781 C3.73273884 4.58712091 -0.73112882 3.75636833 -5.69921875 2.33691406 C-5.69921875 5.63691406 -5.69921875 8.93691406 -5.69921875 12.33691406 C-6.68921875 12.00691406 -7.67921875 11.67691406 -8.69921875 11.33691406 C-8.78053338 9.90035553 -8.83855434 8.46246576 -8.88671875 7.02441406 C-8.92152344 6.22390625 -8.95632812 5.42339844 -8.9921875 4.59863281 C-8.69921875 2.33691406 -8.69921875 2.33691406 -7.6875 0.48144531 C-4.98847461 -1.07221763 -2.98003332 -0.4998502 0 0 Z " fill="#4C4641" transform="translate(51.69921875,35.6630859375)"/>
<path d="M0 0 C0.33 0 0.66 0 1 0 C1 7.59 1 15.18 1 23 C-1.31 23 -3.62 23 -6 23 C-6.66825625 14.3572192 -5.70391847 8.35662003 -1 1 C-0.67 0.67 -0.34 0.34 0 0 Z " fill="#079CD0" transform="translate(40,96)"/>
<path d="M0 0 C0.33 0.66 0.66 1.32 1 2 C-0.2065625 2.7734375 -0.2065625 2.7734375 -1.4375 3.5625 C-4.71339945 6.67859948 -4.8412215 8.55420213 -5 13 C-4.65340705 15.32158065 -4.65340705 15.32158065 -4 17 C-4.66 17 -5.32 17 -6 17 C-6.33 17.99 -6.66 18.98 -7 20 C-7.144375 19.236875 -7.28875 18.47375 -7.4375 17.6875 C-9.56193008 14.03348025 -11.79014949 13.66719556 -15.7109375 12.48046875 C-18.26262516 11.86305249 -18.26262516 11.86305249 -22 12 C-22 8.7 -22 5.4 -22 2 C-21.34 2 -20.68 2 -20 2 C-18.60861839 3.74814612 -17.43705154 5.59672568 -16.21875 7.46875 C-15.61546875 8.22671875 -15.61546875 8.22671875 -15 9 C-14.34 9 -13.68 9 -13 9 C-13 9.66 -13 10.32 -13 11 C-12.01 10.67 -11.02 10.34 -10 10 C-9.38125 8.329375 -9.38125 8.329375 -8.75 6.625 C-7.86297527 4.28996733 -7.37370961 3.24161538 -5.25390625 1.87109375 C-3.53776014 1.15632062 -1.77021362 0.56780437 0 0 Z " fill="#4F4B46" transform="translate(108,93)"/>
<path d="M0 0 C1.32 0.66 2.64 1.32 4 2 C4.50610724 8.07328688 3.04157942 11.77228537 0 17 C-2.4375 16.1875 -2.4375 16.1875 -5 15 C-5.33 14.01 -5.66 13.02 -6 12 C-4.7934375 11.2575 -4.7934375 11.2575 -3.5625 10.5 C-0.01911662 7.04304061 -0.2426059 4.85211791 0 0 Z " fill="#049AD1" transform="translate(72,83)"/>
<path d="M0 0 C0.66 0 1.32 0 2 0 C2.0928125 1.85625 2.0928125 1.85625 2.1875 3.75 C2.60356929 7.30550124 2.84255104 7.84639125 5.5625 10.5 C6.366875 10.995 7.17125 11.49 8 12 C7.67 12.99 7.34 13.98 7 15 C4.4375 16.1875 4.4375 16.1875 2 17 C-0.96053215 11.91158537 -2.72729051 8.06075425 -2 2 C-1.34 1.34 -0.68 0.68 0 0 Z " fill="#039CD4" transform="translate(54,83)"/>
<path d="M0 0 C4.62 0 9.24 0 14 0 C13 4 13 4 11 6 C3.86311531 6.56641942 3.86311531 6.56641942 1 4.6875 C0 3 0 3 0 0 Z " fill="#E05F43" transform="translate(57,69)"/>
<path d="M0 0 C3.3 0 6.6 0 10 0 C10 5 10 5 8 7.3125 C7.34 7.869375 6.68 8.42625 6 9 C3.53199953 7.84826645 1.95216435 6.95216435 0 5 C0 3.35 0 1.7 0 0 Z " fill="#F7CBBB" transform="translate(59,85)"/>
<path d="M0 0 C2.40785992 3.2104799 3.68197635 5.35008834 5 9 C5.763125 8.525625 6.52625 8.05125 7.3125 7.5625 C10 6 10 6 13 5 C13 6.98 13 8.96 13 11 C8.71 11 4.42 11 0 11 C0 7.37 0 3.74 0 0 Z " fill="#0BA7D5" transform="translate(50,95)"/>
<path d="M0 0 C0.33 0 0.66 0 1 0 C1 3.3 1 6.6 1 10 C-3.29 10 -7.58 10 -12 10 C-12 8.02 -12 6.04 -12 4 C-11.13375 4.4640625 -11.13375 4.4640625 -10.25 4.9375 C-8.15705816 5.92583364 -6.25464725 6.5168613 -4 7 C-2.68 4.69 -1.36 2.38 0 0 Z " fill="#0BA7D6" transform="translate(77,96)"/>
<path d="M0 0 C0.33 0 0.66 0 1 0 C1 4.62 1 9.24 1 14 C0.67 14 0.34 14 0 14 C-0.33 11.36 -0.66 8.72 -1 6 C-2.32 8.31 -3.64 10.62 -5 13 C-8.79588866 12.45773019 -10.47211993 10.79872437 -13 8 C-9.98968256 7.06576355 -9.13349732 6.95550089 -6 8 C-5.01 5.69 -4.02 3.38 -3 1 C-2.67 1.66 -2.34 2.32 -2 3 C-1.34 3 -0.68 3 0 3 C0 2.01 0 1.02 0 0 Z " fill="#365860" transform="translate(78,91)"/>
<path d="M0 0 C0.33 0 0.66 0 1 0 C1.33 6.93 1.66 13.86 2 21 C4.475 21.99 4.475 21.99 7 23 C7 23.66 7 24.32 7 25 C4.69 24.67 2.38 24.34 0 24 C-0.33 24.99 -0.66 25.98 -1 27 C-1 26.34 -1 25.68 -1 25 C-1.66 25 -2.32 25 -3 25 C-2.125 17.125 -2.125 17.125 -1 16 C-0.76321284 13.30764224 -0.57801975 10.63501844 -0.4375 7.9375 C-0.39431641 7.17888672 -0.35113281 6.42027344 -0.30664062 5.63867188 C-0.20026367 3.75934562 -0.09960066 1.87969756 0 0 Z " fill="#5D4C3D" transform="translate(84,92)"/>
<path d="M0 0 C0.33 0 0.66 0 1 0 C1 4.29 1 8.58 1 13 C-0.98 13 -2.96 13 -5 13 C-5 10.69 -5 8.38 -5 6 C-4.34 6 -3.68 6 -3 6 C-2.690625 5.195625 -2.38125 4.39125 -2.0625 3.5625 C-1 1 -1 1 0 0 Z " fill="#00B8F0" transform="translate(39,105)"/>
<path d="M0 0 C1.9078584 3.1749094 2.1609041 5.10585211 1.625 8.75 C1.45871094 9.94882812 1.45871094 9.94882812 1.2890625 11.171875 C1.14597656 12.07679687 1.14597656 12.07679687 1 13 C0.67 13 0.34 13 0 13 C0 9.7 0 6.4 0 3 C-1.010625 3.185625 -2.02125 3.37125 -3.0625 3.5625 C-9.67429792 4.42334892 -16.38564003 3.55980911 -23 3 C-23 2.67 -23 2.34 -23 2 C-21.95199219 1.93941406 -20.90398438 1.87882812 -19.82421875 1.81640625 C-18.44529952 1.73198262 -17.06639395 1.64733553 -15.6875 1.5625 C-14.99720703 1.52318359 -14.30691406 1.48386719 -13.59570312 1.44335938 C-8.89921542 1.14841087 -4.70311848 -0.12711131 0 0 Z " fill="#5E4E43" transform="translate(82,35)"/>
<path d="M0 0 C0.33 0 0.66 0 1 0 C2.08358521 5.87485958 2.5368611 9.82102482 -1 15 C-4 17 -4 17 -7 17 C-7.33 17.66 -7.66 18.32 -8 19 C-7.75 16.625 -7.75 16.625 -7 14 C-5.68352881 13.30062468 -4.34977849 12.63270867 -3 12 C-2.39121073 10.15580316 -2.39121073 10.15580316 -2 8 C-1.33333333 5.33333333 -0.66666667 2.66666667 0 0 Z " fill="#44403B" transform="translate(112,83)"/>
<path d="M0 0 C0.66 0 1.32 0 2 0 C3.39138161 1.74814612 4.56294846 3.59672568 5.78125 5.46875 C6.1834375 5.9740625 6.585625 6.479375 7 7 C7.66 7 8.32 7 9 7 C9 7.99 9 8.98 9 10 C6.03 10 3.06 10 0 10 C0 6.7 0 3.4 0 0 Z " fill="#345F6D" transform="translate(86,95)"/>
<path d="M0 0 C0.66 0 1.32 0 2 0 C2.29036649 3.38115651 2.44908891 6.62919149 2 10 C-0.5 12.625 -0.5 12.625 -3 14 C-3.66 13.34 -4.32 12.68 -5 12 C-4.525625 11.608125 -4.05125 11.21625 -3.5625 10.8125 C-1.64820367 8.59191626 -1.38733012 6.86624291 -1 4 C-4.3 4 -7.6 4 -11 4 C-11.33 5.32 -11.66 6.64 -12 8 C-12 6.35 -12 4.7 -12 3 C-8.04 3 -4.08 3 0 3 C0 2.01 0 1.02 0 0 Z " fill="#615853" transform="translate(70,81)"/>
<path d="M0 0 C5.94 0 11.88 0 18 0 C18.33 1.65 18.66 3.3 19 5 C18.34 5 17.68 5 17 5 C17 4.01 17 3.02 17 2 C11.72 2 6.44 2 1 2 C0.67 1.34 0.34 0.68 0 0 Z " fill="#42403C" transform="translate(55,67)"/>
<path d="M0 0 C2.22189824 2.22189824 2.92598892 4.08482708 4 7 C5.32 7 6.64 7 8 7 C7.67 8.32 7.34 9.64 7 11 C5.68 11.33 4.36 11.66 3 12 C-1.06153846 5.72307692 -1.06153846 5.72307692 -0.75 2.0625 C-0.5025 1.381875 -0.255 0.70125 0 0 Z " fill="#3E4A4B" transform="translate(52,92)"/>
<path d="M0 0 C2.125 0.375 2.125 0.375 4 1 C4.625 2.875 4.625 2.875 5 5 C4.34 5.66 3.68 6.32 3 7 C0.875 6.625 0.875 6.625 -1 6 C-1.625 4.125 -1.625 4.125 -2 2 C-1.34 1.34 -0.68 0.68 0 0 Z " fill="#504A44" transform="translate(75,52)"/>
<path d="M0 0 C2.125 0.375 2.125 0.375 4 1 C4.625 2.875 4.625 2.875 5 5 C4.34 5.66 3.68 6.32 3 7 C0.875 6.625 0.875 6.625 -1 6 C-1.625 4.125 -1.625 4.125 -2 2 C-1.34 1.34 -0.68 0.68 0 0 Z " fill="#504A44" transform="translate(50,52)"/>
<path d="M0 0 C5.20540698 0.96396425 9.59913433 1.87680501 14 5 C13.67 5.99 13.34 6.98 13 8 C13 7.34 13 6.68 13 6 C8.545 5.01 8.545 5.01 4 4 C4 3.34 4 2.68 4 2 C2.68 2 1.36 2 0 2 C0 1.34 0 0.68 0 0 Z " fill="#F4D5CA" transform="translate(87,104)"/>
<path d="M0 0 C-0.66 2.64 -1.32 5.28 -2 8 C-2.66 7.34 -3.32 6.68 -4 6 C-4.33 7.65 -4.66 9.3 -5 11 C-5.66 10.67 -6.32 10.34 -7 10 C-6.67506385 6.4257023 -6.36129314 4.44287547 -4.0625 1.625 C-2 0 -2 0 0 0 Z " fill="#E4E9EA" transform="translate(100,78)"/>
<path d="M0 0 C2.48724903 3.31633204 4.23109915 6.29373156 6 10 C4.02 10 2.04 10 0 10 C0 6.7 0 3.4 0 0 Z " fill="#03B5EC" transform="translate(50,95)"/>
<path d="M0 0 C3.3 0 6.6 0 10 0 C9.67 0.99 9.34 1.98 9 3 C6.1875 3.625 6.1875 3.625 3 4 C2.01 3.34 1.02 2.68 0 2 C0 1.34 0 0.68 0 0 Z " fill="#FEB7A0" transform="translate(59,85)"/>
<path d="M0 0 C0.33 0 0.66 0 1 0 C1 4.95 1 9.9 1 15 C0.67 15 0.34 15 0 15 C-0.33 13.35 -0.66 11.7 -1 10 C-1.33 10 -1.66 10 -2 10 C-2.1953125 3.9453125 -2.1953125 3.9453125 -2 2 C-1.34 1.34 -0.68 0.68 0 0 Z " fill="#E16E09" transform="translate(46,90)"/>
<path d="M0 0 C1.485 0.99 1.485 0.99 3 2 C3.40843923 4.71203652 3.13336867 7.2437142 3 10 C2.67 10 2.34 10 2 10 C1.67 11.65 1.34 13.3 1 15 C0.67 15 0.34 15 0 15 C0 10.05 0 5.1 0 0 Z " fill="#E16E09" transform="translate(81,90)"/>
<path d="M0 0 C0.66 0 1.32 0 2 0 C2.29296875 6.0546875 2.29296875 6.0546875 2 8 C1.01 8.66 0.02 9.32 -1 10 C-2 9 -2 9 -2.1875 5.5625 C-2 2 -2 2 0 0 Z " fill="#0895C9" transform="translate(54,83)"/>
<path d="M0 0 C0.33 0 0.66 0 1 0 C1 2.97 1 5.94 1 9 C-0.98 9 -2.96 9 -5 9 C-3.35 6.03 -1.7 3.06 0 0 Z " fill="#03B6ED" transform="translate(77,96)"/>
<path d="M0 0 C3.3 0 6.6 0 10 0 C9.67 0.99 9.34 1.98 9 3 C6.36 3 3.72 3 1 3 C0.67 2.01 0.34 1.02 0 0 Z " fill="#F49F8D" transform="translate(59,72)"/>
<path d="M0 0 C1.32 0.66 2.64 1.32 4 2 C3.01 2 2.02 2 1 2 C1 5.3 1 8.6 1 12 C0.01 11.67 -0.98 11.34 -2 11 C-2.05399736 9.54207116 -2.09279177 8.08357288 -2.125 6.625 C-2.15980469 5.40683594 -2.15980469 5.40683594 -2.1953125 4.1640625 C-2 2 -2 2 0 0 Z " fill="#655951" transform="translate(45,36)"/>
<path d="M0 0 C2.64 0.33 5.28 0.66 8 1 C7.01 1.495 7.01 1.495 6 2 C6 2.99 6 3.98 6 5 C4.02 4.34 2.04 3.68 0 3 C0 2.01 0 1.02 0 0 Z " fill="#ECC3B5" transform="translate(85,110)"/>
<path d="M0 0 C0.99 0 1.98 0 3 0 C4 3 4 3 3.0625 5.1875 C2.5365625 6.0846875 2.5365625 6.0846875 2 7 C1.01 7 0.02 7 -1 7 C-0.67 4.69 -0.34 2.38 0 0 Z " fill="#CDDEE6" transform="translate(96,97)"/>
<path d="M0 0 C0.33 0.99 0.66 1.98 1 3 C2.32467746 3.6837045 3.65863633 4.34964186 5 5 C5.99 6.485 5.99 6.485 7 8 C6.01 8.33 5.02 8.66 4 9 C0.06153846 5.67692308 0.06153846 5.67692308 -0.25 2.25 C-0.1675 1.5075 -0.085 0.765 0 0 Z " fill="#424949" transform="translate(56,86)"/>
<path d="M0 0 C0.598125 0.474375 1.19625 0.94875 1.8125 1.4375 C4.00382924 3.16465744 4.00382924 3.16465744 7 4 C7 4.66 7 5.32 7 6 C4.36 5.67 1.72 5.34 -1 5 C-0.67 3.35 -0.34 1.7 0 0 Z " fill="#544D47" transform="translate(86,105)"/>
<path d="M0 0 C1.65 0 3.3 0 5 0 C6.03159626 3.09478879 5.97482862 4.52631393 5.5625 7.6875 C5.46066406 8.49574219 5.35882813 9.30398437 5.25390625 10.13671875 C5.17011719 10.75160156 5.08632812 11.36648437 5 12 C4.67 12 4.34 12 4 12 C3.96261719 11.30132812 3.92523438 10.60265625 3.88671875 9.8828125 C3.82097656 8.97273438 3.75523438 8.06265625 3.6875 7.125 C3.62949219 6.22007813 3.57148437 5.31515625 3.51171875 4.3828125 C3.2117961 1.63778399 3.2117961 1.63778399 0 0 Z " fill="#625751" transform="translate(78,36)"/>
<path d="M0 0 C2.31 0.33 4.62 0.66 7 1 C5.75 2.5625 5.75 2.5625 4 4 C1.8125 3.6875 1.8125 3.6875 0 3 C0 2.01 0 1.02 0 0 Z " fill="#ECC3B4" transform="translate(84,116)"/>
<path d="M0 0 C0 0.66 0 1.32 0 2 C-0.99 2 -1.98 2 -3 2 C-3.33 2.66 -3.66 3.32 -4 4 C-5.32 2.68 -6.64 1.36 -8 0 C-5.13822943 -1.43088528 -3.06624227 -0.59991697 0 0 Z " fill="#3B4F53" transform="translate(73,99)"/>
<path d="M0 0 C4.62 0 9.24 0 14 0 C14 0.33 14 0.66 14 1 C9.38 1 4.76 1 0 1 C0 0.67 0 0.34 0 0 Z " fill="#43433B" transform="translate(57,127)"/>
<path d="M0 0 C0.33 0 0.66 0 1 0 C1 4.62 1 9.24 1 14 C0.67 14 0.34 14 0 14 C0 9.38 0 4.76 0 0 Z " fill="#45413C" transform="translate(34,38)"/>
<path d="M0 0 C3.96 0 7.92 0 12 0 C12 0.33 12 0.66 12 1 C8.04 1 4.08 1 0 1 C0 0.67 0 0.34 0 0 Z " fill="#45413C" transform="translate(39,17)"/>
<path d="M0 0 C2.64 0 5.28 0 8 0 C8 0.33 8 0.66 8 1 C5.36 1 2.72 1 0 1 C0 0.67 0 0.34 0 0 Z " fill="#45413C" transform="translate(60,14)"/>
<path d="M0 0 C1.32 0.66 2.64 1.32 4 2 C2.02 2 0.04 2 -2 2 C-1.34 1.34 -0.68 0.68 0 0 Z " fill="#45403C" transform="translate(89,125)"/>
<path d="M0 0 C0.33 0 0.66 0 1 0 C1 1.98 1 3.96 1 6 C0.67 6 0.34 6 0 6 C0 4.02 0 2.04 0 0 Z " fill="#45413C" transform="translate(116,83)"/>
<path d="M0 0 C0.33 0 0.66 0 1 0 C1 1.98 1 3.96 1 6 C0.67 6 0.34 6 0 6 C0 4.02 0 2.04 0 0 Z " fill="#45413C" transform="translate(88,83)"/>
<path d="M0 0 C0.33 0 0.66 0 1 0 C1 1.98 1 3.96 1 6 C0.67 6 0.34 6 0 6 C0 4.02 0 2.04 0 0 Z " fill="#45413C" transform="translate(36,20)"/>
<path d="M0 0 C0.33 0 0.66 0 1 0 C1 1.65 1 3.3 1 5 C0.67 5 0.34 5 0 5 C0 3.35 0 1.7 0 0 Z " fill="#45413C" transform="translate(29,106)"/>
<path d="M0 0 C0.33 0 0.66 0 1 0 C1 1.65 1 3.3 1 5 C0.67 5 0.34 5 0 5 C0 3.35 0 1.7 0 0 Z " fill="#45413C" transform="translate(96,54)"/>
<path d="M0 0 C0.33 0 0.66 0 1 0 C1 1.65 1 3.3 1 5 C0.67 5 0.34 5 0 5 C0 3.35 0 1.7 0 0 Z " fill="#45413C" transform="translate(31,54)"/>
<path d="M0 0 C1.65 0 3.3 0 5 0 C5 0.33 5 0.66 5 1 C3.35 1 1.7 1 0 1 C0 0.67 0 0.34 0 0 Z " fill="#45413C" transform="translate(55,15)"/>
<path d="M0 0 C4 1 4 1 4 1 Z " fill="#43423C" transform="translate(37,126)"/>
<path d="M0 0 C1 4 1 4 1 4 Z " fill="#45413C" transform="translate(103,102)"/>
<path d="M0 0 C0 3 0 3 0 3 Z " fill="#45403C" transform="translate(89,89)"/>
<path d="M0 0 C1 4 1 4 1 4 Z " fill="#45413C" transform="translate(37,64)"/>
<path d="M0 0 C4 1 4 1 4 1 Z " fill="#45413C" transform="translate(51,16)"/>
<path d="M0 0 C4 1 4 1 4 1 Z " fill="#45413C" transform="translate(68,15)"/>
<path d="M0 0 C3 1 3 1 3 1 Z " fill="#45413C" transform="translate(93,127)"/>
<path d="" fill="#45413C" transform="translate(0,0)"/>
<path d="" fill="#45413C" transform="translate(0,0)"/>
<path d="" fill="#44423B" transform="translate(0,0)"/>
<path d="" fill="#44413C" transform="translate(0,0)"/>
<path d="" fill="#45413C" transform="translate(0,0)"/>
<path d="" fill="#45403C" transform="translate(0,0)"/>
<path d="" fill="#45413C" transform="translate(0,0)"/>
<path d="" fill="#45413C" transform="translate(0,0)"/>
<path d="" fill="#45413C" transform="translate(0,0)"/>
<path d="" fill="#45403C" transform="translate(0,0)"/>
<path d="M0 0 C3 1 3 1 3 1 Z " fill="#45413C" transform="translate(72,16)"/>
<path d="M0 0 C2 1 2 1 2 1 Z " fill="#43423B" transform="translate(29,125)"/>
<path d="" fill="#45413C" transform="translate(0,0)"/>
<path d="" fill="#45413C" transform="translate(0,0)"/>
<path d="" fill="#45413C" transform="translate(0,0)"/>
<path d="" fill="#45413C" transform="translate(0,0)"/>
<path d="" fill="#45413C" transform="translate(0,0)"/>
<path d="" fill="#45413B" transform="translate(0,0)"/>
<path d="" fill="#45413C" transform="translate(0,0)"/>
<path d="" fill="#45403C" transform="translate(0,0)"/>
<path d="" fill="#45413C" transform="translate(0,0)"/>
<path d="" fill="#453F3C" transform="translate(0,0)"/>
<path d="" fill="#45413C" transform="translate(0,0)"/>
<path d="" fill="#45413B" transform="translate(0,0)"/>
<path d="M0 0 C2 1 2 1 2 1 Z " fill="#45413C" transform="translate(108,74)"/>
<path d="" fill="#45413C" transform="translate(0,0)"/>
<path d="" fill="#45413C" transform="translate(0,0)"/>
<path d="" fill="#44413C" transform="translate(0,0)"/>
<path d="" fill="#45413C" transform="translate(0,0)"/>
<path d="" fill="#45413C" transform="translate(0,0)"/>
<path d="" fill="#45413C" transform="translate(0,0)"/>
<path d="" fill="#45413C" transform="translate(0,0)"/>
<path d="" fill="#45413C" transform="translate(0,0)"/>
<path d="" fill="#45413C" transform="translate(0,0)"/>
<path d="" fill="#46403C" transform="translate(0,0)"/>
<path d="" fill="#45413C" transform="translate(0,0)"/>
<path d="" fill="#45413C" transform="translate(0,0)"/>
<path d="" fill="#44423C" transform="translate(0,0)"/>
<path d="" fill="#45403E" transform="translate(0,0)"/>
<path d="" fill="#43433D" transform="translate(0,0)"/>
<path d="" fill="#45413C" transform="translate(0,0)"/>
<path d="" fill="#45413C" transform="translate(0,0)"/>
<path d="" fill="#45413C" transform="translate(0,0)"/>
<path d="" fill="#45413C" transform="translate(0,0)"/>
<path d="" fill="#45413C" transform="translate(0,0)"/>
<path d="" fill="#45413C" transform="translate(0,0)"/>
<path d="" fill="#45413C" transform="translate(0,0)"/>
<path d="" fill="#45413C" transform="translate(0,0)"/>
<path d="" fill="#45413C" transform="translate(0,0)"/>
<path d="" fill="#45413C" transform="translate(0,0)"/>
<path d="" fill="#45413C" transform="translate(0,0)"/>
<path d="" fill="#45413C" transform="translate(0,0)"/>
<path d="" fill="#45413C" transform="translate(0,0)"/>
<path d="" fill="#45413C" transform="translate(0,0)"/>
<path d="" fill="#45413C" transform="translate(0,0)"/>
<path d="" fill="#45413C" transform="translate(0,0)"/>
<path d="" fill="#45413C" transform="translate(0,0)"/>
<path d="" fill="#45413C" transform="translate(0,0)"/>
<path d="" fill="#45413C" transform="translate(0,0)"/>
<path d="" fill="#45413C" transform="translate(0,0)"/>
<path d="" fill="#45413C" transform="translate(0,0)"/>
<path d="" fill="#45413C" transform="translate(0,0)"/>
<path d="" fill="#45413C" transform="translate(0,0)"/>
<path d="" fill="#45413C" transform="translate(0,0)"/>
<path d="" fill="#45413C" transform="translate(0,0)"/>
<path d="" fill="#45413C" transform="translate(0,0)"/>
<path d="" fill="#45413C" transform="translate(0,0)"/>
<path d="" fill="#45413C" transform="translate(0,0)"/>
<path d="" fill="#45413C" transform="translate(0,0)"/>
<path d="" fill="#45413C" transform="translate(0,0)"/>
<path d="" fill="#45413C" transform="translate(0,0)"/>
<path d="" fill="#45413C" transform="translate(0,0)"/>
<path d="" fill="#45413C" transform="translate(0,0)"/>
<path d="" fill="#45413C" transform="translate(0,0)"/>
<path d="" fill="#45413C" transform="translate(0,0)"/>
<path d="" fill="#45413C" transform="translate(0,0)"/>
<path d="" fill="#44403B" transform="translate(0,0)"/>
<path d="" fill="#45413C" transform="translate(0,0)"/>
<path d="" fill="#45413C" transform="translate(0,0)"/>
<path d="" fill="#45413C" transform="translate(0,0)"/>
<path d="" fill="#45413C" transform="translate(0,0)"/>
<path d="" fill="#45413C" transform="translate(0,0)"/>
<path d="" fill="#45413C" transform="translate(0,0)"/>
<path d="" fill="#45413C" transform="translate(0,0)"/>
<path d="" fill="#45413C" transform="translate(0,0)"/>
</svg>
