<?xml version="1.0" encoding="UTF-8"?>
<svg version="1.1" width="512" height="512" viewBox="0 0 512 512" xmlns="http://www.w3.org/2000/svg" >
<path d="M0 0 C0 148.5 0 297 0 450 C-11.24993525 448.87500648 -11.24993525 448.87500648 -15.07565308 448.06764221 C-15.95328056 447.88513129 -16.83090805 447.70262037 -17.73513031 447.51457882 C-18.66413399 447.31584447 -19.59313766 447.11711012 -20.55029297 446.91235352 C-21.56448555 446.69985993 -22.57867813 446.48736635 -23.62360382 446.26843357 C-26.99753262 445.56023082 -30.36983055 444.84455334 -33.7421875 444.12890625 C-36.17093137 443.61760057 -38.59977729 443.10677939 -41.02871704 442.59640503 C-46.24708962 441.49887448 -51.46478504 440.39820717 -56.68188477 439.29464722 C-64.92942413 437.550113 -73.17846447 435.81274585 -81.42773438 434.07641602 C-84.25495579 433.48124263 -87.08216332 432.8860033 -89.90936279 432.29072571 C-90.9690372 432.06761016 -90.9690372 432.06761016 -92.05011916 431.83998722 C-97.12745414 430.77082563 -102.20455509 429.70055713 -107.28155518 428.62980652 C-127.34197527 424.3992558 -147.405709 420.18474104 -167.47207499 415.98248506 C-169.65242091 415.52587549 -171.83275627 415.06921556 -174.01308823 414.61253929 C-181.08504207 413.13131051 -188.15703629 411.65027465 -195.22906494 410.16940308 C-195.91339541 410.02610504 -196.59772587 409.88280701 -197.30279362 409.73516661 C-200.75150742 409.01301441 -204.20022562 408.29088321 -207.64894867 407.56877518 C-215.51066772 405.92261005 -223.37222795 404.27569013 -231.23356247 402.62768936 C-233.61824934 402.12792485 -236.00299606 401.62844582 -238.38780594 401.12926865 C-241.63563849 400.44943229 -244.88327296 399.76865755 -248.13085938 399.08764648 C-249.0814366 398.88891213 -250.03201382 398.69017778 -251.01139641 398.48542118 C-251.88077402 398.30291026 -252.75015163 398.12039934 -253.64587402 397.93235779 C-254.39555199 397.77531592 -255.14522995 397.61827406 -255.91762543 397.45647335 C-257.95404758 397.01007314 -259.97747081 396.5056323 -262 396 C-262 282.15 -262 168.3 -262 51 C-235.56214154 45.25263946 -235.56214154 45.25263946 -222.29321289 42.71704102 C-220.77114855 42.42399018 -219.24913177 42.1306922 -217.72715759 41.83717346 C-213.65816315 41.0531353 -209.58853708 40.27242449 -205.51878285 39.49234128 C-201.15326339 38.65488386 -196.78839204 37.81406103 -192.42344666 36.97361755 C-184.10973205 35.37334343 -175.79550675 33.7757403 -167.48106521 32.1792478 C-152.86589592 29.37282105 -138.25168214 26.56142258 -123.63747823 23.74997365 C-119.14425717 22.88558608 -114.65100339 22.0213693 -110.15767288 21.15755081 C-90.63524486 17.40437689 -71.11503545 13.64023846 -51.60107422 9.84326172 C-50.74714879 9.67711754 -49.89322337 9.51097337 -49.01342142 9.33979452 C-40.87141264 7.7554208 -32.72972708 6.1694002 -24.58868933 4.58004427 C-21.6782174 4.01196042 -18.7676184 3.44452943 -15.85699964 2.87719846 C-13.86917884 2.48942384 -11.88156488 2.10060157 -9.89395714 1.71173668 C-8.7268149 1.48423037 -7.55967266 1.25672405 -6.35716248 1.02232361 C-5.33989295 0.823571 -4.32262342 0.6248184 -3.27452755 0.42004299 C-1 0 -1 0 0 0 Z M-167 163 C-182.8322399 181.08302683 -188.42161417 202.6532813 -188.3125 226.25 C-188.30686035 227.52762207 -188.3012207 228.80524414 -188.29541016 230.12158203 C-188.01455792 251.98634581 -182.52095936 271.10194698 -167.69140625 287.5625 C-158.75611557 296.24836549 -147.47219707 301.95271628 -135 303 C-133.84177734 303.12181641 -133.84177734 303.12181641 -132.66015625 303.24609375 C-120.92453184 303.89047912 -108.32054509 300.0658306 -99 293 C-98.17113281 292.37480469 -97.34226562 291.74960937 -96.48828125 291.10546875 C-80.83397855 278.18407648 -73.33034958 258.31585386 -71.2109375 238.57080078 C-69.19074455 213.94969917 -71.46212251 186.70909647 -87.546875 166.72265625 C-92.86762942 160.47841785 -98.51365949 155.50449221 -106 152 C-106.83917969 151.60167969 -107.67835938 151.20335937 -108.54296875 150.79296875 C-128.84250168 142.3073442 -151.50577066 148.09885121 -167 163 Z " fill="#EF7300" transform="translate(298,35)"/>
<path d="M0 0 C0.07011505 22.02705829 0.12300044 44.05409814 0.15543652 66.08124542 C0.17089818 76.3090844 0.19197436 86.536854 0.22631836 96.76464844 C0.2562421 105.68032932 0.27558009 114.59595995 0.28226548 123.51168966 C0.28617269 128.23147396 0.29534066 132.95111449 0.31719017 137.67085266 C0.33760229 142.11625287 0.34382425 146.56145053 0.33932304 151.00689316 C0.34014613 152.63545203 0.34608361 154.26401791 0.35761642 155.89253616 C0.47833304 173.82308961 0.47833304 173.82308961 -4.8671875 180.2421875 C-15.00025247 188.48269559 -24.34634234 188.14884821 -37.01342773 188.11352539 C-38.4331614 188.11324301 -39.85289521 188.11340225 -41.27262878 188.1139679 C-45.11094774 188.11425389 -48.94923521 188.10838923 -52.78754687 188.10139394 C-56.80473847 188.09512736 -60.82193085 188.09455399 -64.83912659 188.09336853 C-72.43916698 188.09026494 -80.03919293 188.08206469 -87.63922697 188.07201904 C-97.91416684 188.05873359 -108.18911068 188.05335014 -118.46405697 188.04751682 C-134.64271546 188.03812413 -150.82134347 188.01819871 -167 188 C-167 148.07 -167 108.14 -167 67 C-162.88859609 68.64456156 -160.53416665 69.90860853 -157.125 72.5 C-152.51029922 75.89997629 -147.88989991 79.28440142 -143.1875 82.5625 C-142.56568848 83.01625 -141.94387695 83.47 -141.30322266 83.9375 C-138.57882465 85.81166396 -136.66557578 87.01190146 -133.31030273 86.9519043 C-128.76179474 85.64394407 -125.41170338 83.26889558 -121.5546875 80.578125 C-120.72900772 80.01510178 -119.90332794 79.45207855 -119.05262756 78.87199402 C-117.26174553 77.64943724 -115.47404238 76.42221371 -113.68917847 75.19088745 C-108.84780971 71.85188391 -103.98254397 68.54794465 -99.12109375 65.23828125 C-98.11605301 64.55262589 -97.11101227 63.86697052 -96.07551575 63.16053772 C-85.77070003 56.1389967 -75.36309101 49.27787715 -64.9375 42.4375 C-61.31441683 40.05833648 -57.69204254 37.67809784 -54.0703125 35.296875 C-53.17285812 34.70684189 -52.27540375 34.11680878 -51.35075378 33.50889587 C-44.5260556 29.01666783 -37.72358388 24.49177982 -30.9296875 19.953125 C-29.9485347 19.2977626 -28.9673819 18.64240021 -27.95649719 17.96717834 C-23.22953297 14.80850564 -18.50497821 11.64628444 -13.78295898 8.48022461 C-12.10142706 7.35526515 -10.4198693 6.23034432 -8.73828125 5.10546875 C-7.9645517 4.58515076 -7.19082214 4.06483276 -6.39364624 3.52874756 C-1.11312595 0 -1.11312595 0 0 0 Z " fill="#F07300" transform="translate(484,184)"/>
<path d="M0 0 C20.12311286 -0.07006631 40.24620099 -0.12297652 60.36941051 -0.15543652 C69.71286788 -0.17090854 79.05624947 -0.19200446 88.3996582 -0.22631836 C96.54292247 -0.25621045 104.68613187 -0.27557257 112.82944947 -0.28226548 C117.14169597 -0.28617807 121.45378547 -0.29538012 125.76598167 -0.31719017 C129.82479222 -0.33755234 133.88338109 -0.34383437 137.94223785 -0.33932304 C139.43176541 -0.34014837 140.92130038 -0.34611574 142.41078377 -0.35761642 C144.44524394 -0.37255449 146.47982305 -0.36716313 148.514328 -0.36076355 C150.22194951 -0.36491162 150.22194951 -0.36491162 151.96406841 -0.36914349 C157.01199093 0.244641 160.0956287 2.7191476 163.25 6.5625 C163.75015625 7.16191406 164.2503125 7.76132813 164.765625 8.37890625 C166.50577838 10.66423426 167.06795856 12.28316069 167.75 15.125 C166.85983654 19.72417789 166.10054424 20.13712102 162.4375 22.8125 C160.87643736 23.83189086 159.31496081 24.85066442 157.74980164 25.86375427 C154.93390655 27.69227511 152.14068013 29.55479845 149.34765625 31.41796875 C148.70703247 31.8452124 148.06640869 32.27245605 147.40637207 32.71264648 C139.48977935 37.99946855 131.60550745 43.33421103 123.7177124 48.66384888 C111.53867074 56.89229903 99.35529572 65.11346288 87.1171875 73.25390625 C86.24773499 73.83236298 85.37828247 74.4108197 84.48248291 75.00680542 C80.38409651 77.73235543 76.28348151 80.4544745 72.1796875 83.171875 C63.23805403 89.10386382 54.41542907 95.17742675 45.67626953 101.40405273 C44.45092068 102.26947374 43.22550167 103.13479542 42 104 C41.43925278 104.40492172 40.87850555 104.80984344 40.30076599 105.22703552 C37.49918872 107.19610855 36.22029597 107.99294426 32.70703125 108.10546875 C27.763782 106.63134911 23.9515592 104.16548097 19.6875 101.3125 C18.08802003 100.26573357 16.48775695 99.22016279 14.88671875 98.17578125 C14.13898697 97.65954697 13.39125519 97.14331268 12.62086487 96.61143494 C10.08863347 94.92570645 10.08863347 94.92570645 7.36961365 94.08241272 C4.09529064 92.79537868 2.31307199 91.68179631 0 89 C-1.91974432 82.62516534 -1.15709428 75.51444319 -0.9765625 68.9453125 C-0.95790172 66.95852215 -0.94367159 64.97168565 -0.9336853 62.98483276 C-0.89557632 57.76558466 -0.79741718 52.54913786 -0.68664551 47.33099365 C-0.58418425 42.00229797 -0.53864195 36.67314767 -0.48828125 31.34375 C-0.38116396 20.8946052 -0.21058767 10.44753588 0 0 Z " fill="#F07300" transform="translate(317,131)"/>
<path d="M0 0 C10.04781006 6.18326773 14.40940178 15.18640085 17.1796875 26.3984375 C18.7884446 33.61840017 19.0078733 40.56394248 18.9375 47.9375 C18.94910156 49.15308594 18.96070313 50.36867188 18.97265625 51.62109375 C18.929522 65.09335698 16.75145571 78.5528389 7.3828125 88.828125 C0.35075949 95.41031603 -5.62868818 96.94466469 -15.1875 96.73828125 C-22.28282197 96.08162285 -26.77934434 93.47509471 -31.6875 88.375 C-37.69075185 81.09217057 -40.99834058 72.7083642 -42.4375 63.4375 C-42.54835937 62.74398437 -42.65921875 62.05046875 -42.7734375 61.3359375 C-45.12914669 43.82728815 -43.79314077 23.0863174 -33.125 8.375 C-25.11327419 -1.0392161 -11.75434565 -5.41440331 0 0 Z " fill="#F07300" transform="translate(180.4375,212.5625)"/>
</svg>
